<?xml version="1.0" encoding="UTF-8"?>
<svg width="42px" height="42px" viewBox="0 0 42 42" version="1.1" xmlns="http://www.w3.org/2000/svg" xmlns:xlink="http://www.w3.org/1999/xlink">
    <!-- Generator: Sketch 52.4 (67378) - http://www.bohemiancoding.com/sketch -->
    <title>-g-feedItemCard / ic / tags / chat</title>
    <desc>Created with Sketch.</desc>
    <g id="-g-feedItemCard-/-ic-/-tags-/-chat" stroke="none" stroke-width="1" fill="none" fill-rule="evenodd">
        <g id="chat" transform="translate(3.000000, 4.000000)" fill-rule="nonzero">
            <path d="M35.2795715,20.3307902 C35.2795715,14.3264759 30.2439881,9.45857208 24.0317688,9.45857208 C23.9543152,9.45857208 23.8768616,9.45942164 23.800232,9.46083754 L13.0080871,22.4869403 L13.0089111,22.5030817 C14.0498657,27.4664179 18.5896912,31.2027252 24.0317688,31.2027252 C25.0911255,31.2027252 26.1158752,31.0614173 27.0881653,30.796925 C28.1027527,32.0276353 29.4875793,32.901819 31.0616455,33.2271955 L30.6474609,28.8123834 C33.2146912,26.8199127 35.2795715,23.7604111 35.2795715,20.3307902 Z" id="Shape" fill="#76B7EB"></path>
            <path d="M23.800232,9.46083754 C25.2737732,16.4976346 19.2560119,22.505064 12.35495,22.505064 C11.2955933,22.505064 9.84896852,22.363756 8.87722777,22.0992637 C7.86209105,23.329974 6.47726442,24.2041578 4.90347288,24.5295342 L4.8963318,20.1147222 C2.32910156,18.1222515 0.685546875,15.0627499 0.685546875,11.633129 C0.685546875,5.62881461 6.1427307,0.760910866 12.35495,0.760910866 C18.388092,0.760910866 22.7735596,4.56999597 23.800232,9.46083754 Z" id="Shape" fill="#C7E6FF"></path>
            <path d="M29.6661072,15.9819596 C29.2780152,15.9819596 28.9629822,16.3067697 28.9629822,16.7066231 C28.9629822,17.1067597 29.2780152,17.4315698 29.6661072,17.4315698 C30.0541992,17.4315698 30.3689575,17.1067597 30.3689575,16.7066231 C30.3689575,16.3067697 30.0541992,15.9819596 29.6661072,15.9819596 Z" id="Shape" fill="#333333"></path>
            <path d="M6.32702637,8.73390855 C6.71484375,8.73390855 7.02987673,8.4090985 7.02987673,8.00896185 C7.02987673,7.60910851 6.71484375,7.28429839 6.32702637,7.28429839 C5.93893434,7.28429839 5.62390137,7.60910851 5.62390137,8.00896185 C5.62390137,8.4090985 5.93893434,8.73390855 6.32702637,8.73390855 Z" id="Shape" fill="#333333"></path>
            <path d="M24.3679504,8.7381563 C23.0410766,3.73064369 18.442749,0.0362473348 12.3725281,0.0362473348 C5.94332887,0.0362473348 -2.84217094e-14,5.06896322 -2.84217094e-14,11.633129 C-2.84217094e-14,15.0587853 1.53753666,18.2595949 4.21847536,20.470116 L4.22506716,24.530667 C4.2253418,24.7475846 4.31295778,24.953175 4.47583008,25.0905184 C4.63677975,25.2264459 4.85046387,25.2833656 5.0592041,25.2400386 C6.60415648,24.920609 8.03759766,24.0968317 9.13897702,22.9029351 C10.1777344,23.1277819 11.466156,23.2300107 12.3725281,23.2300107 C12.407135,23.2300107 12.4414672,23.2288779 12.4757996,23.2285948 C13.8317871,28.3301239 18.5847473,31.9276719 24.0490723,31.9276719 C25.0018616,31.9276719 25.9469605,31.8189299 26.8648682,31.6039946 C27.9648742,32.7959088 29.3969422,33.6185534 30.9407959,33.9376999 C31.1572266,33.9824427 31.3835449,33.9201426 31.5502625,33.7649587 C31.715332,33.6111907 31.8002014,33.3857776 31.7787781,33.1572495 L31.401947,29.1405917 C34.0518494,26.963203 36,23.8017557 36,20.3307902 C36,14.0396122 30.8108826,8.90268527 24.3679504,8.7381563 Z M9.07443239,21.3986707 C8.81295778,21.3275919 8.53472897,21.4173608 8.35949707,21.6297474 C7.62231445,22.5234708 6.67117308,23.1971615 5.62225345,23.5797408 L5.61676022,20.1135894 C5.61648558,19.886194 5.51293945,19.6723914 5.33660892,19.5356143 C2.83859255,17.5969483 1.40597536,14.7167011 1.40597536,11.633129 C1.40597536,6.13259595 6.42810059,1.48585756 12.3725281,1.48585756 C18.0387268,1.48585756 22.1660156,5.0199727 23.1308899,9.61403922 C24.4594117,15.9584555 19.2101441,21.4213253 12.9869385,21.7634095 C12.7883606,21.7747368 12.581543,21.7804004 12.3725281,21.7804004 C11.2563172,21.7804004 9.90005491,21.6232343 9.07443239,21.3986707 Z M30.2423401,28.2332756 C30.0467834,28.3850613 29.9415894,28.6308635 29.96521,28.8820463 L30.2802429,32.2411547 C29.27005,31.8529117 28.3551636,31.1933802 27.6416016,30.3276919 C27.466095,30.115022 27.1878662,30.0252532 26.9263916,30.096332 C25.9950256,30.3494969 25.0271301,30.4780617 24.0490723,30.4780617 C19.3309937,30.4780617 15.1954651,27.4349847 13.9133606,23.135711 C15.9178162,22.8904751 17.8283386,22.1745902 19.4913941,21.0557369 L29.6661072,21.0557369 C30.0541992,21.0557369 30.3689575,20.7309269 30.3689575,20.3307902 C30.3689575,19.9306536 30.0541992,19.6061268 29.6661072,19.6061268 L21.2742004,19.6061268 C21.9600219,18.936967 22.5516357,18.2072062 23.0419006,17.4315698 L26.8541565,17.4315698 C27.2422485,17.4315698 27.5570068,17.1070429 27.5570068,16.7069063 C27.5570068,16.3064866 27.2422485,15.9819596 26.8541565,15.9819596 L23.8172607,15.9819596 C24.607727,14.2010261 24.9147949,12.2541478 24.6544189,10.2007929 C30.1882324,10.5035148 34.5940246,14.9310701 34.5940246,20.3307902 C34.5940246,23.1643124 32.9672242,26.1187533 30.2423401,28.2332756 Z" id="Shape" fill="#333333"></path>
            <path d="M9.13897702,8.73390855 L18.4183045,8.73390855 C18.8063965,8.73390855 19.1211547,8.40938166 19.1211547,8.00896185 C19.1211547,7.60882528 18.8063965,7.28429839 18.4183045,7.28429839 L9.13897702,7.28429839 C8.75061035,7.28429839 8.43585202,7.60882528 8.43585202,8.00896185 C8.43585202,8.40938166 8.75061035,8.73390855 9.13897702,8.73390855 Z" id="Shape" fill="#333333"></path>
            <path d="M6.32702637,12.3577925 L18.4183045,12.3577925 C18.8063965,12.3577925 19.1211547,12.0332656 19.1211547,11.633129 C19.1211547,11.2329924 18.8063965,10.9081823 18.4183045,10.9081823 L6.32702637,10.9081823 C5.9386597,10.9081823 5.62390137,11.2329924 5.62390137,11.633129 C5.62390137,12.0332656 5.9386597,12.3577925 6.32702637,12.3577925 Z" id="Shape" fill="#333333"></path>
            <path d="M19.1211548,15.2570129 C19.1211548,14.8568763 18.8063965,14.5323494 18.4183045,14.5323494 L6.32702637,14.5323494 C5.9386597,14.5323494 5.62390137,14.8568763 5.62390137,15.2570129 C5.62390137,15.6574327 5.9386597,15.9819596 6.32702637,15.9819596 L18.4183045,15.9819596 C18.8063965,15.9819596 19.1211548,15.6574327 19.1211548,15.2570129 Z" id="Shape" fill="#333333"></path>
            <path d="M29.6661072,23.2300107 L18.4183045,23.2300107 C18.0302124,23.2300107 17.7151795,23.5545375 17.7151795,23.9546742 C17.7151795,24.3550939 18.0302124,24.6796209 18.4183045,24.6796209 L29.6661072,24.6796209 C30.0541992,24.6796209 30.3689575,24.3550939 30.3689575,23.9546742 C30.3689575,23.5545375 30.0541992,23.2300107 29.6661072,23.2300107 Z" id="Shape" fill="#333333"></path>
        </g>
    </g>
</svg>