<?xml version="1.0" encoding="UTF-8"?>
<svg width="42px" height="42px" viewBox="0 0 42 42" version="1.1" xmlns="http://www.w3.org/2000/svg" xmlns:xlink="http://www.w3.org/1999/xlink">
    <!-- Generator: Sketch 51.2 (57519) - http://www.bohemiancoding.com/sketch -->
    <title>-g-feedItemCard / ic / tags / events</title>
    <desc>Created with Sketch.</desc>
    <defs></defs>
    <g id="-g-feedItemCard-/-ic-/-tags-/-events" stroke="none" stroke-width="1" fill="none" fill-rule="evenodd">
        <g id="events" transform="translate(0.000000, 1.000000)" fill-rule="nonzero">
            <g id="Group" transform="translate(4.921875, 13.630435)" fill="#EF685E">
                <path d="M4.46783203,9.47852174 C7.94267578,10.4014261 11.5854375,8.09540435 13.2330352,2.00078261 C13.3877461,1.42846957 13.5193242,0.843104348 13.6279336,0.25146087 C10.2090352,-0.656573913 6.03257813,1.47109565 0.290472656,0.25146087 C-0.627128906,5.41582609 1.30626562,8.63888696 4.46783203,9.47852174 Z" id="Shape"></path>
                <path d="M18.9232148,2.00086522 C20.5707305,8.09548696 24.2133281,10.4015087 27.6883359,9.47860435 C30.6096328,8.70274348 32.4824063,5.89198261 32.0261484,1.39501304 C31.0185586,1.12744348 29.9525625,1.12537826 28.8032227,1.22442609 C26.0526328,1.46151304 22.8242109,2.27727391 18.7744922,1.41706957 C18.821332,1.61293478 18.8709609,1.80764348 18.9232148,2.00086522 Z" id="Shape"></path>
            </g>
            <path d="M19.1395313,8.36644348 L8.37014063,5.50628261 C8.36956641,5.50603478 8.37022266,5.50628261 8.36956641,5.50603478 L8.37014063,5.50628261 C8.02126172,5.41343043 7.65228516,5.56179565 7.46262891,5.87149565 C6.28277344,7.79875652 5.35491797,9.94286522 4.77938672,12.072187 C3.81863672,15.6258478 3.98171484,18.6745217 5.25098438,20.8886 C5.98532813,22.169613 7.06297266,23.1097 8.39450391,23.6452522 L5.378625,34.8016391 L1.02965625,33.6466043 C0.5919375,33.5302913 0.142816406,33.7934826 0.0273164062,34.2346957 C-0.088265625,34.6758261 0.173167969,35.1277783 0.611296875,35.2441739 L10.8830859,37.9723261 C10.8834961,37.9724087 10.8826758,37.9722435 10.8830859,37.9723261 C10.8834961,37.9724087 10.8825937,37.9722435 10.8830859,37.9723261 C10.9531406,37.990913 11.0235234,37.9998348 11.0928398,37.9998348 C11.4563203,37.9998348 11.7884648,37.7547348 11.8854258,37.3842348 C12.0010078,36.9431043 11.7395742,36.4911522 11.3014453,36.3747565 L6.96510938,35.2230261 L9.98041406,24.0689522 C10.2759727,24.1101739 10.5717773,24.1314043 10.8655313,24.1314043 C14.5233867,24.1314043 17.5443516,21.0349 18.9465117,15.8482304 C19.522207,13.718413 19.8002109,11.4011565 19.7506641,9.14684783 C19.7422969,8.77866087 19.493168,8.46036957 19.1395313,8.36644348 Z M17.3633086,15.414287 C16.167375,19.8380652 13.7383477,22.4792304 10.8653672,22.4792304 C10.4469258,22.4792304 10.0208555,22.4223957 9.59880469,22.3102957 C8.33453906,21.9744913 7.32235547,21.1972261 6.67184766,20.062513 C5.90017969,18.7164043 5.64038672,16.9405652 5.89558594,14.848913 C6.99086719,15.0283391 8.02511719,15.0978957 9.00530859,15.0978957 C10.6183711,15.0978957 12.088043,14.9146696 13.4543555,14.7443304 C14.9956406,14.5521826 16.3635117,14.3824217 17.5792148,14.5355783 C17.5130977,14.8316478 17.4414844,15.1249913 17.3633086,15.414287 Z M17.878875,12.9099217 C16.424707,12.710587 14.8763672,12.9023217 13.2530508,13.104713 C11.1768398,13.3635261 8.84879297,13.6535652 6.18384375,13.2234217 C6.23790234,12.9873261 6.29696484,12.7485043 6.36250781,12.506213 C6.84583594,10.7180652 7.59757031,8.91703043 8.54855859,7.26237826 L9.85195313,7.6085913 C9.61570313,8.06706957 9.39782813,8.53810435 9.22810547,8.92165652 C9.04369922,9.33833478 9.22966406,9.82671739 9.64342969,10.0125043 C9.75195703,10.0612435 9.86532422,10.0842913 9.97688672,10.0842913 C10.2908203,10.0842913 10.5905625,9.90172609 10.7266523,9.59433913 C10.9920234,8.99476522 11.2513242,8.46284783 11.4825703,8.04162609 L18.1152891,9.80317391 C18.1084805,10.8396652 18.0283359,11.8844174 17.878875,12.9099217 Z" id="Shape" fill="#333333"></path>
            <path d="M41.9725195,34.2346957 C41.8571016,33.7935652 41.4078984,33.5305391 40.9701797,33.6466043 L36.6211289,34.8016391 L33.60525,23.645087 C34.9367813,23.1095348 36.0144258,22.1694478 36.7486875,20.8884348 C38.017957,18.6743565 38.1810352,15.6256826 37.2203672,12.0720217 C36.6447539,9.9427 35.7168984,7.7985913 34.537043,5.87133043 C34.3473047,5.56163043 33.9786563,5.41318261 33.6295313,5.50611739 L22.8603047,8.36636087 C22.506668,8.46028696 22.257457,8.77857826 22.2493359,9.14684783 C22.2047109,11.1753043 22.4261953,13.2541522 22.8903281,15.2019826 C22.8954961,15.2293261 22.9018945,15.2564217 22.9096875,15.2829391 C22.955707,15.4725261 23.0030391,15.6613696 23.0535703,15.8482304 C24.4554844,21.034487 27.4762852,24.1310739 31.1343047,24.1314043 C31.1344688,24.1314043 31.1346328,24.1314043 31.1348789,24.1314043 C31.4284688,24.1314043 31.7241914,24.1101739 32.0195859,24.0689522 L35.0348906,35.2230261 L30.6985547,36.3747565 C30.2604258,36.4910696 29.9989922,36.9430217 30.1145742,37.3842348 C30.2116172,37.7548174 30.5437617,37.9998348 30.9071602,37.9998348 C30.9763945,37.9998348 31.0468594,37.990913 31.1169141,37.9723261 C31.1174063,37.9722435 31.1165039,37.9724087 31.1169141,37.9723261 C31.1173242,37.9722435 31.1165039,37.9724087 31.1169141,37.9723261 L41.3887031,35.2441739 C41.826668,35.1278609 42.0881016,34.6758261 41.9725195,34.2346957 Z M23.8847109,9.80292609 L33.4511953,7.26221304 C34.4022656,8.91686522 35.154,10.7179 35.6373281,12.5061304 C35.7775195,13.0247478 35.8908867,13.5290739 35.9785781,14.0184478 C35.479582,13.9686348 34.9710703,13.9609522 34.453043,13.9817696 C34.3650234,13.3769913 34.235332,12.7466043 34.124918,12.2576435 C34.0245938,11.8127957 33.5848242,11.5339913 33.14325,11.635187 C32.7014297,11.7363 32.4246563,12.1789174 32.5251445,12.6238478 C32.6495859,13.1750957 32.7474492,13.6830565 32.8141406,14.1182391 C32.4427031,14.1608652 32.0672461,14.2089435 31.6874414,14.2576826 C29.5578281,14.5313652 27.1603008,14.8390826 24.3768984,14.3391348 C24.0623086,12.8680391 23.8943906,11.3267261 23.8847109,9.80292609 Z M31.1348789,22.4791478 C31.1347148,22.4791478 31.1345508,22.4791478 31.1344687,22.4791478 C28.4094727,22.4789 26.084625,20.1017522 24.8319258,16.0825087 C25.7464922,16.2088174 26.6165156,16.2602826 27.4459336,16.2602826 C29.063918,16.2602826 30.531457,16.071687 31.8952266,15.8964739 C33.5036133,15.6898696 34.9208672,15.5080478 36.1809492,15.7075478 C36.2765156,17.4287 35.9915391,18.9045043 35.3278242,20.0623478 C34.6773164,21.1970609 33.6652148,21.9744087 32.4008672,22.3101304 C31.9788984,22.4223957 31.5529922,22.4791478 31.1348789,22.4791478 Z" id="Shape" fill="#333333"></path>
            <path d="M20.999918,8.26086957e-05 C20.5469414,8.26086957e-05 20.1796055,0.369921739 20.1796055,0.826169565 L20.1796055,2.98085217 C20.1796055,3.4371 20.5469414,3.80693913 20.999918,3.80693913 C21.4528945,3.80693913 21.8202305,3.4371 21.8202305,2.98085217 L21.8202305,0.826169565 C21.8202305,0.369921739 21.4529766,8.26086957e-05 20.999918,8.26086957e-05 Z" id="Shape" fill="#333333"></path>
            <path d="M16.9291172,4.88729565 C17.0818594,5.14949565 17.3559258,5.29554783 17.6375391,5.29554783 C17.7785508,5.29554783 17.9213672,5.25895217 18.0517969,5.18187826 C18.4425938,4.95106957 18.5735156,4.44492609 18.3443203,4.05137826 L17.2574063,2.18533043 C17.0281289,1.79178261 16.5256055,1.65977391 16.1347266,1.89074783 C15.7439297,2.12155652 15.6130078,2.6277 15.8422031,3.02124783 L16.9291172,4.88729565 Z" id="Shape" fill="#333333"></path>
            <path d="M23.9482031,5.18187826 C24.0786328,5.25895217 24.2214492,5.29554783 24.3624609,5.29554783 C24.6439922,5.29554783 24.9180586,5.14949565 25.0708828,4.88729565 L26.1577969,3.02124783 C26.3869922,2.6277 26.2559883,2.12155652 25.8652734,1.89074783 C25.4743945,1.65985652 24.9718711,1.79178261 24.7425938,2.18533043 L23.6556797,4.05137826 C23.4264023,4.44484348 23.5574063,4.95106957 23.9482031,5.18187826 Z" id="Shape" fill="#333333"></path>
            <path d="M31.9503516,10.4708174 C32.0610938,10.8225652 32.3838867,11.0475913 32.7321094,11.0475913 C32.8134023,11.0475913 32.8961719,11.0352826 32.977875,11.0094261 C33.4101797,10.8728739 33.6506133,10.4092739 33.5150977,9.97392609 C33.5146875,9.97285217 33.5140313,9.97078696 33.513457,9.96888696 C33.3795,9.53659565 32.9242266,9.2929 32.4932344,9.424 C32.0594531,9.55584348 31.8140156,10.0168 31.9449375,10.4535522 C31.9464141,10.4579304 31.948875,10.4660261 31.9503516,10.4708174 Z" id="Shape" fill="#333333"></path>
            <ellipse id="Oval" fill="#333333" cx="9.02327344" cy="11.3997522" rx="1" ry="1"></ellipse>
        </g>
    </g>
</svg>