<?xml version="1.0" encoding="UTF-8"?>
<svg width="42px" height="42px" viewBox="0 0 42 42" version="1.1" xmlns="http://www.w3.org/2000/svg" xmlns:xlink="http://www.w3.org/1999/xlink">
    <!-- Generator: Sketch 51.2 (57519) - http://www.bohemiancoding.com/sketch -->
    <title>-g-feedItemCard / ic / tags / food</title>
    <desc>Created with Sketch.</desc>
    <defs></defs>
    <g id="-g-feedItemCard-/-ic-/-tags-/-food" stroke="none" stroke-width="1" fill="none" fill-rule="evenodd">
        <g id="food" transform="translate(0.000000, 5.000000)" fill-rule="nonzero">
            <path d="M21.0245273,5.61142857 C14.6123906,5.61142857 9.41431641,10.7841633 9.41431641,17.1652245 C9.41431641,23.5461224 14.6123086,28.7190204 21.0245273,28.7190204 C27.4367461,28.7190204 32.6347383,23.5462857 32.6347383,17.1652245 C32.6346562,10.7842449 27.4366641,5.61142857 21.0245273,5.61142857 Z M21.0245273,24.6866122 C16.8502852,24.6866122 13.466332,21.319102 13.466332,17.1651429 C13.466332,13.0111837 16.8502852,9.64367347 21.0245273,9.64367347 C25.1987695,9.64367347 28.5827227,13.0111837 28.5827227,17.1651429 C28.5827227,21.319102 25.1987695,24.6866122 21.0245273,24.6866122 Z" id="Shape" fill="#EEEEEE"></path>
            <ellipse id="Oval" fill="#999999" cx="21.0244453" cy="17.1654694" rx="7.55827734" ry="7.52155102"></ellipse>
            <path d="M38.5043203,7.39257143 C38.2259063,5.13583673 37.2273398,3.02759184 35.6555391,1.37746939 L35.5841719,1.30253061 C34.9284141,0.614122449 33.7700508,1.15746939 33.886207,2.09885714 L36.1162266,20.1723265 L40.0223086,19.6950204 L38.5043203,7.39257143 Z" id="Shape" fill="#C7E6FF"></path>
            <path d="M40.0223086,19.695102 L36.1162266,20.1724082 L37.2588398,29.4328163 C37.3913203,30.5062041 38.3730703,31.269551 39.4516992,31.1377959 C40.5303281,31.0059592 41.2974023,30.0289796 41.1649219,28.9555918 L40.0223086,19.695102 Z" id="Shape" fill="#FAD06A"></path>
            <path d="M0.859195313,28.3920816 C0.683566406,29.5222857 1.48230469,30.5730612 2.62294922,30.7124082 C3.76359375,30.8517551 4.79407031,30.0244898 4.89841406,28.8856327 L6.60663281,10.2457143 L3.73324219,9.89461224 L0.859195313,28.3920816 Z" id="Shape" fill="#C7E6FF"></path>
            <g id="Group" fill="#333333">
                <path d="M21.0245273,4.79518367 C14.1703242,4.79518367 8.59400391,10.3443265 8.59400391,17.1652245 C8.59400391,23.9861224 14.1703242,29.5353469 21.0245273,29.5353469 C27.8787305,29.5353469 33.4550508,23.9861224 33.4550508,17.1652245 C33.4550508,10.3443265 27.8787305,4.79518367 21.0245273,4.79518367 Z M21.0245273,27.9026122 C15.0749648,27.9026122 10.2346289,23.0857959 10.2346289,17.1651429 C10.2346289,11.2444898 15.0749648,6.4277551 21.0245273,6.4277551 C26.9740898,6.4277551 31.8144258,11.2444898 31.8144258,17.1651429 C31.8144258,23.0857959 26.9740898,27.9026122 21.0245273,27.9026122 Z" id="Shape"></path>
                <path d="M27.2698125,12.8497143 C26.872207,13.0657143 26.7258633,13.5617143 26.942918,13.9573878 C27.4790742,14.9346122 27.7624102,16.0439184 27.7624102,17.1652245 C27.7624102,20.862449 24.7398047,23.8703673 21.0245273,23.8703673 C17.30925,23.8703673 14.2866445,20.8623673 14.2866445,17.1652245 C14.2866445,13.4680816 17.30925,10.4600816 21.0245273,10.4600816 C21.3810352,10.4600816 21.7388555,10.488 22.0878984,10.543102 C22.5358711,10.6138776 22.955625,10.3098776 23.0265,9.86457143 C23.097375,9.41926531 22.7921367,9.00106122 22.3446562,8.93053061 C21.910875,8.86212245 21.4666758,8.82742857 21.0244453,8.82742857 C16.4046094,8.82742857 12.6459375,12.5677551 12.6459375,17.1652245 C12.6459375,21.7626939 16.4045273,25.5030204 21.0244453,25.5030204 C25.6443633,25.5030204 29.4030352,21.7626122 29.4030352,17.1652245 C29.4030352,15.7713469 29.0503008,14.3915102 28.3828945,13.1750204 C28.1657578,12.7793469 27.6675,12.6337143 27.2698125,12.8497143 Z" id="Shape"></path>
                <path d="M24.9278203,11.233551 C24.9483281,11.2826122 24.9737578,11.3299592 25.0032891,11.3740408 C25.0336406,11.4189388 25.0672734,11.4605714 25.1050078,11.4981224 C25.1435625,11.5356735 25.1853984,11.5699592 25.2305156,11.6001633 C25.2748125,11.629551 25.3223906,11.6548571 25.3716094,11.6752653 C25.4216484,11.6956735 25.4725078,11.7111837 25.5250078,11.7217959 C25.5783281,11.7324082 25.6324688,11.7372245 25.6857891,11.7372245 C25.7391094,11.7372245 25.79325,11.7323265 25.84575,11.7217959 C25.89825,11.7112653 25.9499297,11.6956735 25.9991484,11.6752653 C26.0491875,11.6548571 26.0967656,11.629551 26.1410625,11.6001633 C26.1861797,11.5699592 26.2280156,11.5356735 26.26575,11.4981224 C26.3034844,11.4605714 26.3379375,11.4189388 26.3674688,11.3740408 C26.397,11.3299592 26.4224297,11.2826122 26.4429375,11.233551 C26.4634453,11.1838367 26.4790313,11.1324082 26.4896953,11.0809796 C26.5003594,11.0279184 26.5061016,10.9747755 26.5061016,10.920898 C26.5061016,10.7062041 26.4183281,10.4955918 26.26575,10.3438367 C26.2280156,10.3062857 26.1861797,10.272 26.1410625,10.2426122 C26.0967656,10.2132245 26.0491875,10.1879184 25.9991484,10.1675102 C25.9499297,10.147102 25.89825,10.1315918 25.84575,10.1209796 C25.7399297,10.0997551 25.6308281,10.0997551 25.5250078,10.1209796 C25.4725078,10.1315918 25.4216484,10.147102 25.3716094,10.1675102 C25.3223906,10.1879184 25.2748125,10.2132245 25.2305156,10.2426122 C25.1853984,10.272 25.1435625,10.3062857 25.1050078,10.3438367 C25.0672734,10.3813878 25.0336406,10.4230204 25.0032891,10.4679184 C24.9737578,10.512 24.9483281,10.5593469 24.9278203,10.6091429 C24.9073125,10.6581224 24.8917266,10.7094694 24.8810625,10.7617959 C24.8703984,10.8140408 24.8654766,10.8679184 24.8654766,10.920898 C24.8654766,10.9747755 24.8703984,11.0279184 24.8810625,11.0809796 C24.8917266,11.1331429 24.9073125,11.1838367 24.9278203,11.233551 Z" id="Shape"></path>
                <path d="M39.3184805,7.29306122 C39.1333359,5.79232653 38.6597695,4.36416327 37.9108242,3.0484898 C37.4511211,2.24073469 36.8926523,1.48963265 36.2510039,0.816 L36.1793906,0.740816327 C35.6327344,0.166857143 34.8150469,0.013877551 34.0959609,0.351102041 C33.3770391,0.688244898 32.9750859,1.41338776 33.0719648,2.19836735 L36.4445156,29.5323265 C36.4553437,29.6200816 36.4701914,29.7063673 36.4888945,29.791102 C36.7691133,31.061551 37.9093477,31.9690612 39.2097891,31.968898 C39.322582,31.968898 39.4368516,31.9621224 39.5515312,31.9480816 C40.4574844,31.8373878 41.2094648,31.3034286 41.6316797,30.5699592 C41.6761406,30.4927347 41.7169102,30.4133878 41.7538242,30.332 C41.7907383,30.2506122 41.8237969,30.1673469 41.8528359,30.0822857 C41.9833477,29.6997551 42.0316641,29.283102 41.979,28.8560816 L39.3184805,7.29306122 Z M34.7003672,1.99942857 C34.6963477,1.96669388 34.6856016,1.87942857 34.7954414,1.82791837 C34.8255469,1.81379592 34.8519609,1.80832653 34.8749297,1.80832653 C34.9357148,1.80832653 34.9722187,1.84669388 34.988625,1.864 L35.0602383,1.93918367 C35.6105039,2.51681633 36.0892383,3.16073469 36.4833164,3.85314286 C37.125375,4.98114286 37.5314297,6.20555102 37.6901602,7.49216327 L39.1081523,18.9844082 L36.8303906,19.2626939 L34.7003672,1.99942857 Z M40.2796406,29.6116735 C40.1300977,29.9884898 39.7834336,30.2748571 39.3517031,30.3275918 C38.7234258,30.4048163 38.1500273,29.9583673 38.072918,29.3333878 L37.0303008,20.8831837 L39.3080625,20.604898 L40.3506797,29.055102 C40.3747969,29.2502857 40.3475625,29.4403265 40.2796406,29.6116735 Z" id="Shape"></path>
                <path d="M10.0847578,7.91404082 L10.830832,1.86734694 C10.8860391,1.41991837 10.5662812,1.01257143 10.1165859,0.95755102 C9.66672656,0.902367347 9.25763672,1.22089796 9.20242969,1.66832653 L8.45635547,7.71502041 C8.34003516,8.65738776 7.57476562,9.36832653 6.62771484,9.42579592 L6.08392969,9.35934694 L7.06510547,1.40726531 C7.1203125,0.959836735 6.80055469,0.552489796 6.35085937,0.497469388 C5.90108203,0.442040816 5.49191016,0.760816327 5.43670312,1.2082449 L4.45552734,9.16032653 L3.91125,9.09387755 C3.00644531,8.80995918 2.43690234,7.936 2.55314063,6.99371429 L3.29921484,0.947102041 C3.35442188,0.499673469 3.03466406,0.0923265306 2.58496875,0.0373061224 C2.13535547,-0.0182040816 1.72601953,0.300653061 1.6708125,0.748081633 L0.924738281,6.79469388 C0.738117188,8.30759184 1.51405078,9.72604082 2.82294141,10.4063673 L0.0322382812,28.2787755 C0.0319101562,28.2807347 0.0315820312,28.2828571 0.0312539062,28.284898 C-0.08203125,29.048898 0.114597656,29.808 0.584882812,30.4222857 C1.05516797,31.0365714 1.73840625,31.4267755 2.50802344,31.5208163 L2.52295312,31.5226122 C2.64181641,31.5371429 2.76043359,31.5443265 2.87814844,31.5443265 C3.52693359,31.5443265 4.15061719,31.3260408 4.66429687,30.9136327 C5.27124609,30.4263673 5.64448828,29.7324082 5.71528125,28.9595918 L7.36476562,10.9614694 C8.80023047,10.6165714 9.89813672,9.42702041 10.0847578,7.91404082 Z M4.08154688,28.8114286 C4.05135938,29.1403265 3.89254688,29.4355918 3.63423047,29.6430204 C3.37591406,29.850449 3.05254687,29.9430204 2.72351953,29.9022857 L2.70858984,29.9004898 C2.38079297,29.8604898 2.08999219,29.694449 1.88991797,29.4329796 C1.69025391,29.1722449 1.6065,28.8502041 1.65391406,28.5259592 L4.42173047,10.8012245 L5.06903906,10.8803265 C5.06936719,10.8803265 5.06961328,10.8804082 5.06994141,10.8804898 C5.0701875,10.8804898 5.07043359,10.8804898 5.07067969,10.8804898 L5.71749609,10.9595102 L4.08154688,28.8114286 Z" id="Shape"></path>
            </g>
        </g>
    </g>
</svg>