<?xml version="1.0" encoding="UTF-8"?>
<svg width="56px" height="56px" viewBox="0 0 56 56" version="1.1" xmlns="http://www.w3.org/2000/svg" xmlns:xlink="http://www.w3.org/1999/xlink">
    <!-- Generator: Sketch 51.2 (57519) - http://www.bohemiancoding.com/sketch -->
    <title>kakao</title>
    <desc>Created with Sketch.</desc>
    <defs></defs>
    <g id="kakao" stroke="none" stroke-width="1" fill="none" fill-rule="evenodd">
        <rect fill="#FFBE19" x="0" y="0" width="56" height="56"></rect>
        <g id="-g-ic-/-ic-kakao" transform="translate(12.000000, 12.000000)" fill="#403631" fill-rule="nonzero">
            <path d="M2.66666667,14.1745101 C2.66666667,17.6995478 5.16666667,21.0892648 8.916,22.9864344 C8.63866667,23.6643778 7.52666667,27.4600569 7.52666667,27.7320382 C7.52660855,27.8050028 7.55616318,27.874836 7.60850426,27.9254084 C7.66084534,27.9759808 8.08133333,28 8.08133333,28 C8.35866667,28 12.9426667,24.8822643 13.6373333,24.4749623 C14.4037487,24.6975816 15.2021459,24.7881829 15.9986667,24.7429241 C23.4986667,24.7429241 29.332,20.1339809 29.332,14.575113 C29.332,8.61028303 23.4986667,4 15.9986667,4 C8.5,4.00669905 2.66666667,8.61564227 2.66666667,14.1745101 Z" id="ic-kakao"></path>
        </g>
    </g>
</svg>