<?xml version="1.0" encoding="UTF-8"?>
<svg width="40px" height="40px" viewBox="0 0 40 40" version="1.1" xmlns="http://www.w3.org/2000/svg" xmlns:xlink="http://www.w3.org/1999/xlink">
    <!-- Generator: Sketch 51.2 (57519) - http://www.bohemiancoding.com/sketch -->
    <title>launcher40</title>
    <desc>Created with Sketch.</desc>
    <defs>
        <path d="M10.2555408,0 L29.7444592,0 C33.3105342,-2.4074122e-16 34.6036791,0.371302445 35.9073828,1.06853082 C37.2110865,1.76575919 38.2342408,2.78891348 38.9314692,4.09261719 C39.6286976,5.39632089 40,6.68946584 40,10.2555408 L40,29.7444592 C40,33.3105342 39.6286976,34.6036791 38.9314692,35.9073828 C38.2342408,37.2110865 37.2110865,38.2342408 35.9073828,38.9314692 C34.6036791,39.6286976 33.3105342,40 29.7444592,40 L10.2555408,40 C6.68946584,40 5.39632089,39.6286976 4.09261719,38.9314692 C2.78891348,38.2342408 1.76575919,37.2110865 1.06853082,35.9073828 C0.371302445,34.6036791 1.60494146e-16,33.3105342 -2.76224082e-16,29.7444592 L0,10.2555408 C-1.60494146e-16,6.68946584 0.371302445,5.39632089 1.06853082,4.09261719 C1.76575919,2.78891348 2.78891348,1.76575919 4.09261719,1.06853082 C5.39632089,0.371302445 6.68946584,2.4074122e-16 10.2555408,-4.14336123e-16 Z" id="path-1"></path>
        <path d="M8.01331115,14.3227953 C8.01331115,14.9351082 7.55008319,15.2252912 7.07088186,15.2252912 C6.62362729,15.2252912 6.66622296,15.2252912 5.97670549,15.2252912 C4.96163165,15.2252912 3.91347754,14.8472546 3.3171381,14.0991681 C2.73677205,13.3697171 2.44126456,12.2835275 2.44126456,10.8698835 L2.44126456,4.87720466 L1.01430948,4.87720466 C0.535108153,4.87720466 0.0239600666,4.56039933 0.0239600666,3.97737105 C0.0239600666,3.39168053 0.535108153,3.07753744 1.01430948,3.07753744 L2.44126456,3.07753744 L2.44126456,0.90515807 C2.44126456,0.399334443 2.84326123,0.00266222962 3.35707155,0.00266222962 C3.87620632,0.00266222962 4.28352745,0.399334443 4.28352745,0.90515807 L4.28352745,3.07753744 L7.06289517,3.07753744 C7.53410982,3.07753744 8.01331115,3.39434276 8.01331115,3.97737105 C8.01331115,4.56306156 7.53410982,4.87720466 7.06289517,4.87720466 L4.28352745,4.87720466 L4.28352745,10.8698835 C4.28352745,12.7574043 4.96163165,13.4442596 5.97670549,13.4442596 C6.61297837,13.4442596 6.59168053,13.4442596 7.07088186,13.4442596 C7.55008319,13.4442596 8.01331115,13.7104825 8.01331115,14.3227953 Z M19.9933444,14.3227953 C19.9933444,14.9351082 19.5301165,15.2252912 19.0509151,15.2252912 C18.6036606,15.2252912 18.6462562,15.2252912 17.9567388,15.2252912 C16.9416649,15.2252912 15.8935108,14.8472546 15.2971714,14.0991681 C14.7168053,13.3697171 14.4212978,12.2835275 14.4212978,10.8698835 L14.4212978,4.87720466 L12.9943428,4.87720466 C12.5151414,4.87720466 12.0039933,4.56039933 12.0039933,3.97737105 C12.0039933,3.39168053 12.5151414,3.07753744 12.9943428,3.07753744 L14.4212978,3.07753744 L14.4212978,0.90515807 C14.4212978,0.399334443 14.8232945,0.00266222962 15.3371048,0.00266222962 C15.8562396,0.00266222962 16.2635607,0.399334443 16.2635607,0.90515807 L16.2635607,3.07753744 L19.0429285,3.07753744 C19.5141431,3.07753744 19.9933444,3.39434276 19.9933444,3.97737105 C19.9933444,4.56306156 19.5141431,4.87720466 19.0429285,4.87720466 L16.2635607,4.87720466 L16.2635607,10.8698835 C16.2635607,12.7574043 16.9416649,13.4442596 17.9567388,13.4442596 C18.5930116,13.4442596 18.5717138,13.4442596 19.0509151,13.4442596 C19.5301165,13.4442596 19.9933444,13.7104825 19.9933444,14.3227953 Z M10.121797,2.96838602 C10.6409318,2.96838602 11.0482529,3.37304493 11.0482529,3.8921797 L11.0482529,14.2828619 C11.0482529,14.8126456 10.6382696,15.2252912 10.1164725,15.2252912 C9.59467554,15.2252912 9.18469218,14.8099834 9.18469218,14.2828619 L9.18469218,3.91347754 C9.18469218,3.44758735 9.53610649,2.96838602 10.121797,2.96838602 Z M10.1164725,0.00266222962 C10.7500832,0.00266222962 11.2665557,0.519134775 11.2665557,1.15274542 C11.2665557,1.78635607 10.7500832,2.30282862 10.1164725,2.30282862 C9.4828619,2.30282862 8.96638935,1.78635607 8.96638935,1.15274542 C8.96638935,0.519134775 9.4828619,0.00266222962 10.1164725,0.00266222962 Z M31.9680532,9.03560732 C31.9787022,9.28851913 31.9733777,9.44292845 31.9547421,9.56006656 C31.9494176,9.59467554 31.9414309,9.6266223 31.9334443,9.65058236 L31.930782,9.66389351 C31.8136439,10.052579 31.4542429,10.3241265 31.049584,10.3241265 C30.8046589,10.3241265 30.5757072,10.2282862 30.4026622,10.0552413 C30.2269551,9.87953411 30.133777,9.64792013 30.133777,9.40033278 C30.133777,9.28319468 30.133777,9.17670549 30.1364393,9.08352745 C30.1364393,8.78003328 30.1018303,8.47121464 30.0379368,8.1703827 L30.0352745,8.16239601 C29.7317804,6.51181364 28.6642263,5.321797 27.1041597,4.90116473 C26.3294509,4.70682196 25.437604,4.71480865 24.6628952,4.92246256 C23.4941764,5.23926789 22.5384359,6.09650582 22.0459235,7.27853577 L22.0432612,7.28652246 C21.785025,7.85357737 21.6519135,8.46056572 21.6519135,9.08885191 C21.6519135,9.39500832 21.6838602,9.70116473 21.7477537,10.0019967 L21.8036606,10.2628952 C21.9580699,10.8911814 22.2455907,11.4529118 22.6582363,11.9347754 C23.2785358,12.6695507 24.1810316,13.1647255 25.20599,13.3244592 C25.2592346,13.3351082 25.3124792,13.3430948 25.3657238,13.3484193 L25.4003328,13.3537438 C25.472213,13.3617304 25.5467554,13.3670549 25.6186356,13.3723794 L25.6292845,13.3723794 C25.6798669,13.3750416 25.727787,13.3777038 25.7757072,13.3777038 C25.7916805,13.3803661 25.8049917,13.3803661 25.8183028,13.3803661 C25.8342762,13.3830283 25.8529118,13.3830283 25.8688852,13.3830283 C26.9524126,13.4016639 28.0199667,13.0582363 28.8718802,12.4086522 C29.287188,12.0865225 29.8542429,12.1264559 30.1896839,12.5071547 C30.4665557,12.8186356 30.5224626,13.356406 30.0965058,13.7823627 L30.0911814,13.7876872 C29.1114809,14.7008319 27.6339434,15.2252912 26.0312812,15.2252912 C25.99401,15.2252912 25.9567388,15.2252912 25.9194676,15.2252912 C23.9467554,15.1986689 22.2269551,14.4292845 21.1993344,13.1114809 C20.1690516,11.7883527 19.7138103,10.3321131 19.8016639,8.66289517 C19.9241265,6.04326123 21.6572379,3.82296173 24.1144759,3.14143095 C25.2326123,2.84858569 26.5104825,2.84858569 27.6259567,3.13876872 C30.296173,3.85224626 31.9174709,6.05657238 31.9680532,9.03560732 Z M24.1229548,9.54814369 C24.1229548,9.62164082 24.1054053,9.69513796 24.079081,9.77451487 C24.0556817,9.82155304 24.0264325,9.86271143 23.9913334,9.90092994 C23.9971832,9.91562937 24.0001082,9.9303288 24.0030331,9.93620857 C24.1463542,10.1449404 24.3189245,10.3036943 24.5061194,10.4242296 C24.8658847,10.6594204 25.2753735,10.7564366 25.5971148,10.7917152 C25.7492107,10.8093546 25.9100813,10.8211141 26.0768018,10.8211141 C26.2464472,10.8211141 26.4102427,10.8093546 26.5681885,10.7887754 C26.8870048,10.7505568 27.2906438,10.6535406 27.6474842,10.4212897 C27.8317542,10.2978145 28.0072494,10.1420006 28.1505705,9.93326868 C28.1534954,9.92738891 28.1564203,9.91268948 28.1622702,9.89799006 C28.1271711,9.85977155 28.0979219,9.81861315 28.0745226,9.77157498 C28.0423484,9.70395762 28.0247989,9.63046048 28.0247989,9.55402346 C28.0247989,9.28061411 28.2383181,9.0601227 28.5044859,9.0601227 C28.6361073,9.0601227 28.7618789,9.11304064 28.8525514,9.21299674 L29.5223583,9.93914845 C29.5252832,9.94208834 29.5282081,9.94208834 29.5282081,9.94502822 C29.531133,9.94796811 29.5720819,10.0126456 29.5867065,10.1067219 C29.5954813,10.1420006 29.6013311,10.1831589 29.6013311,10.2243173 C29.6013311,10.4977267 29.3878119,10.7182181 29.1216441,10.7182181 C29.1187192,10.7182181 29.1157943,10.7182181 29.1128694,10.7182181 L29.1040946,10.7182181 C29.0602208,10.7182181 29.0192719,10.7093984 28.978323,10.6976389 C28.9227495,10.6976389 28.8730259,10.7064586 28.8262272,10.7270378 C28.8145275,10.7329175 28.7999029,10.7387973 28.7882032,10.7446771 C28.7501792,10.7652563 28.7150802,10.7946551 28.685831,10.8269939 C28.6770562,10.8387534 28.6682814,10.8505129 28.6536568,10.8681523 C28.6507319,10.874032 28.6448821,10.8769719 28.6419572,10.8828517 C28.5395849,11.0063269 28.3055913,11.2503374 27.8931775,11.4767086 C27.688433,11.5913641 27.4632142,11.6825005 27.2262956,11.7559977 C27.0566502,11.8059757 26.881155,11.850074 26.696885,11.8824127 C26.5009153,11.9118116 26.2932459,11.9294509 26.0768018,11.9294509 C25.8603577,11.9294509 25.6526883,11.9118116 25.4567186,11.8824127 C25.2724486,11.850074 25.0969534,11.8089156 24.927308,11.7559977 C24.6874645,11.6795607 24.4651705,11.5884242 24.2604261,11.4767086 C23.8480123,11.2503374 23.6110937,11.0063269 23.5087215,10.8799118 C23.5057966,10.874032 23.4999467,10.8710921 23.4970218,10.8652124 C23.4823972,10.8475731 23.4736225,10.8358135 23.4648477,10.824054 C23.4355985,10.7887754 23.4004994,10.7623164 23.3624755,10.7417372 C23.3507758,10.7358574 23.3390761,10.7299776 23.3244515,10.7240979 C23.2776528,10.7035187 23.2279291,10.694699 23.1752806,10.694699 L23.1723556,10.694699 C23.1314067,10.7064586 23.0904579,10.7123383 23.0465841,10.7152782 L23.0378093,10.7152782 C23.0319594,10.7152782 23.0290345,10.7152782 23.0261096,10.7152782 C22.7628668,10.7152782 22.5464226,10.4947868 22.5464226,10.2213775 C22.5464226,10.1802191 22.5522725,10.1390607 22.5610472,10.0979023 C22.5756718,10.0067658 22.6166207,9.94502822 22.6195456,9.94208834 C22.6224706,9.93914845 22.6224706,9.93914845 22.6253955,9.93620857 L23.2952023,9.21005686 C23.3858748,9.11010075 23.5116464,9.05424293 23.6432679,9.05424293 C23.9065107,9.05424293 24.1229548,9.27473434 24.1229548,9.54814369 Z" id="path-3"></path>
        <linearGradient x1="50%" y1="100%" x2="50%" y2="3.061617e-15%" id="linearGradient-5">
            <stop stop-color="#17C060" stop-opacity="0.78" offset="0%"></stop>
            <stop stop-color="#17C060" stop-opacity="0.24" offset="100%"></stop>
        </linearGradient>
        <linearGradient x1="50%" y1="100%" x2="50%" y2="3.061617e-15%" id="linearGradient-6">
            <stop stop-color="#327D32" offset="0%"></stop>
            <stop stop-color="#17C060" offset="100%"></stop>
        </linearGradient>
    </defs>
    <g id="launcher40" stroke="none" stroke-width="1" fill="none" fill-rule="evenodd">
        <g id="launcher---cropped">
            <!-- <mask id="mask-2" fill="white">
                <use xlink:href="#path-1"></use>
            </mask> -->
            <use id="Mask" fill="#17C060" fill-rule="nonzero" xlink:href="#path-1"></use>
            <g id="launcher---original" mask="url(#mask-2)" fill-rule="evenodd" stroke-width="1">
                <g id="-g-launcher---original" transform="translate(4.000000, 12.400000)">
                    <g id="color-/-brand">
                        <mask id="mask-4" fill="white">
                            <use xlink:href="#path-3"></use>
                        </mask>
                        <use id="Mask" fill="#FFFFFF" fill-rule="nonzero" xlink:href="#path-3"></use>
                        <g id="color-/-white" mask="url(#mask-4)" fill="#FFFFFF">
                            <rect id="white" x="0" y="0" width="32" height="15.2279534"></rect>
                        </g>
                    </g>
                </g>
            </g>
            <g id="launcher" stroke-width="1" fill-rule="evenodd" mask="url(#mask-2)">
                <rect id="base" fill="#FFFFFF" fill-rule="nonzero" x="0" y="0" width="40" height="40" rx="6.66666667"></rect>
                <g id="icon" transform="translate(2.842593, 5.185185)" fill-rule="nonzero">
                    <path d="M12.8021802,28.1843427 C13.8418538,28.1843427 21.691069,16.6314237 21.691069,11.517676 C21.691069,6.4039283 17.9159278,2.25841673 12.8021802,2.25841673 C7.68843247,2.25841673 3.91329126,6.4039283 3.91329126,11.517676 C3.91329126,16.6314237 11.7625065,28.1843427 12.8021802,28.1843427 Z" id="left" fill="url(#linearGradient-5)" transform="translate(12.802180, 15.221380) rotate(-20.000000) translate(-12.802180, -15.221380) "></path>
                    <g id="right" transform="translate(21.691069, 15.221380) rotate(20.000000) translate(-21.691069, -15.221380) translate(12.802180, 2.258417)">
                        <path d="M8.88888889,25.9259259 C9.9285625,25.9259259 17.7777778,14.3730069 17.7777778,9.25925926 C17.7777778,4.14551158 14.0026366,0 8.88888889,0 C3.77514121,0 0,4.14551158 0,9.25925926 C0,14.3730069 7.84921528,25.9259259 8.88888889,25.9259259 Z" id="rightbody" fill="url(#linearGradient-6)"></path>
                        <circle id="rightoval" fill="#FFFFFF" cx="8.88888889" cy="8.88888889" r="3.7037037"></circle>
                    </g>
                </g>
            </g>
        </g>
    </g>
</svg>