<?xml version="1.0" encoding="UTF-8"?>
<svg width="42px" height="42px" viewBox="0 0 42 42" version="1.1" xmlns="http://www.w3.org/2000/svg" xmlns:xlink="http://www.w3.org/1999/xlink">
    <!-- Generator: Sketch 51.2 (57519) - http://www.bohemiancoding.com/sketch -->
    <title>-g-feedItemCard / ic / tags / store</title>
    <desc>Created with Sketch.</desc>
    <defs></defs>
    <g id="-g-feedItemCard-/-ic-/-tags-/-store" stroke="none" stroke-width="1" fill="none" fill-rule="evenodd">
        <g id="store" transform="translate(2.000000, 4.000000)" fill-rule="nonzero">
            <polygon id="Shape" fill="#C7E6FF" points="21.5234375 11.2619048 24.0950013 20.2414966 35.7734375 20.2414966 35.7734375 11.2619048"></polygon>
            <polygon id="Shape" fill="#FAD06A" points="2.2265625 20.2414966 35.7734375 20.2414966 35.7734375 32.2142857 2.2265625 32.2142857"></polygon>
            <polygon id="Shape" fill="#C7E6FF" points="6.68780518 18.744898 6.6796875 18.9693878 6.6796875 27.7244898 18.5546875 27.7244898 18.5546875 18.744898"></polygon>
            <path d="M35.7734375,8.26870748 L35.7734375,11.2619048 C32.4486694,11.2619048 7.28358461,11.2619048 3.7109375,11.2619048 L3.7109375,8.26870748 C3.7109375,7.44177829 4.37513735,6.77210884 5.1953125,6.77210884 L34.2890625,6.77210884 C35.1092377,6.77210884 35.7734375,7.44177829 35.7734375,8.26870748 Z" id="Shape" fill="#38648C"></path>
            <path d="M32.8046875,2.28231293 L32.8046875,6.77210884 L6.6796875,6.77210884 L6.6796875,2.28231293 C6.6796875,1.45538373 7.34388735,0.785714286 8.1640625,0.785714286 L31.3203125,0.785714286 C32.1404877,0.785714286 32.8046875,1.45538373 32.8046875,2.28231293 Z" id="Shape" fill="#EF685E"></path>
            <polygon id="Shape" fill="#FAD06A" points="7.421875 11.2619048 6.6796875 17.2482993 0.7421875 17.2482993 3.7109375 11.2619048"></polygon>
            <path d="M12.6171875,17.2482993 L12.6171875,18.744898 C12.6171875,20.3978795 11.2879181,21.7380952 9.6484375,21.7380952 C8.08404541,21.7380952 6.80145264,20.5168474 6.68780518,18.9685108 C6.68258663,18.8945578 6.6796875,18.8197279 6.6796875,18.744898 L6.6796875,17.2482993 L12.6171875,17.2482993 Z" id="Shape" fill="#FAD06A"></path>
            <polygon id="Shape" fill="#FAD06A" points="17.0703125 11.2619048 18.5546875 17.2482993 12.6171875 17.2482993 11.875 11.2619048"></polygon>
            <path d="M24.4921875,17.2482993 L24.4921875,18.744898 C24.4921875,20.3899872 23.1721955,21.7380952 21.5234375,21.7380952 C19.8839569,21.7380952 18.5546875,20.3978795 18.5546875,18.744898 L18.5546875,17.2482993 L24.4921875,17.2482993 Z" id="Shape" fill="#FAD06A"></path>
            <g id="Group" transform="translate(0.742188, 11.224490)" fill="#EF685E">
                <polygon id="Shape" points="20.78125 0.037414966 23.75 6.02380952 17.8125 6.02380952 16.328125 0.037414966"></polygon>
                <path d="M17.8125,6.02380952 L17.8125,7.52040816 C17.8125,9.17338969 16.4832306,10.5136054 14.84375,10.5136054 C13.2042694,10.5136054 11.875,9.17338969 11.875,7.52040816 L11.875,6.02380952 L17.8125,6.02380952 Z" id="Shape"></path>
                <polygon id="Shape" points="11.1328125 0.037414966 11.875 6.02380952 5.9375 6.02380952 6.6796875 0.037414966"></polygon>
                <path d="M5.9375,6.02380952 L5.9375,7.52040816 C5.9375,9.17338969 4.60823061,10.5136054 2.96875,10.5136054 C1.3283997,10.5136054 0,9.17280504 0,7.52040816 L0,6.02380952 L5.9375,6.02380952 Z" id="Shape"></path>
            </g>
            <polygon id="Shape" fill="#38648C" points="27.1640625 24.7312925 31.6171875 24.7312925 31.6171875 32.2142857 27.1640625 32.2142857"></polygon>
            <path d="M19.7607422,3.03061224 C19.3510895,3.03061224 19.0185547,3.36588544 19.0185547,3.77891156 C19.0185547,4.19193769 19.3510895,4.52721088 19.7607422,4.52721088 C20.1703949,4.52721088 20.5029297,4.19193769 20.5029297,3.77891156 C20.5029297,3.36588544 20.1703949,3.03061224 19.7607422,3.03061224 Z" id="Shape" fill="#333333"></path>
            <path d="M16.7919922,3.03061224 L11.1513672,3.03061224 C10.7414245,3.03061224 10.4091797,3.36559307 10.4091797,3.77891156 C10.4091797,4.19223005 10.7414245,4.52721088 11.1513672,4.52721088 L16.7919922,4.52721088 C17.2019349,4.52721088 17.5341797,4.19223005 17.5341797,3.77891156 C17.5341797,3.36559307 17.2019349,3.03061224 16.7919922,3.03061224 Z" id="Shape" fill="#333333"></path>
            <path d="M28.3701172,3.03061224 L22.7294922,3.03061224 C22.3195495,3.03061224 21.9873047,3.36559307 21.9873047,3.77891156 C21.9873047,4.19223005 22.3195495,4.52721088 22.7294922,4.52721088 L28.3701172,4.52721088 C28.7800599,4.52721088 29.1123047,4.19223005 29.1123047,3.77891156 C29.1123047,3.36559307 28.7800599,3.03061224 28.3701172,3.03061224 Z" id="Shape" fill="#333333"></path>
            <path d="M0.741027832,31.4659864 C0.42385868,31.4659864 0.133651715,31.6662149 0.0379791445,31.9710884 C-0.123794574,32.4875904 0.254257184,32.962585 0.7421875,32.962585 L37.2589722,32.962585 C37.5761413,32.962585 37.8663483,32.7623565 37.9620209,32.457483 C38.1237946,31.9409811 37.7457428,31.4659864 37.2578125,31.4659864 L36.515625,31.4659864 L36.515625,8.26870748 C36.515625,7.02875216 35.5188903,6.02380952 34.2890625,6.02380952 L33.546875,6.02380952 L33.546875,2.28231293 C33.546875,1.04235761 32.5501403,0.037414966 31.3203125,0.037414966 L8.1640625,0.037414966 C6.93423466,0.037414966 5.9375,1.04235761 5.9375,2.28231293 L5.9375,6.02380952 L5.1953125,6.02380952 C3.96548466,6.02380952 2.96875,7.02875216 2.96875,8.26870748 L2.96875,11.0853529 L0.078277625,16.9136108 C0.0292815977,17.0124096 0,17.1296237 0,17.2482993 L0,18.744898 C0,19.9255155 0.559539758,21.0345185 1.484375,21.7366337 L1.484375,31.4659864 L0.741027832,31.4659864 Z M2.59823605,20.6898916 C1.91113281,20.2891422 1.484375,19.5440583 1.484375,18.744898 L1.484375,17.9965986 L5.9375,17.9965986 L5.9375,18.744898 C5.9375,19.9828072 4.93873598,20.9897959 3.7109375,20.9897959 C3.3198395,20.9897959 2.93511963,20.8860278 2.59823605,20.6898916 Z M11.2383423,12.0102041 L11.7949829,16.5 L7.53900146,16.5 L8.09564209,12.0102041 L11.2383423,12.0102041 Z M35.03125,19.4931973 L25.1589966,19.4931973 C25.2085724,19.2476616 25.234375,18.9971567 25.234375,18.744898 L25.234375,17.2482993 C25.234375,17.1325468 25.2068329,17.0159173 25.1560974,16.9136108 L22.7242737,12.0102041 L35.03125,12.0102041 L35.03125,19.4931973 Z M21.0833435,12.0102041 L23.309906,16.5 L19.1527863,16.5 L18.039505,12.0102041 L21.0833435,12.0102041 Z M7.421875,17.9965986 L11.875,17.9965986 L11.875,18.7028061 C11.875,19.8071322 11.099472,20.7784598 10.0189515,20.9588117 C8.70330811,21.1786246 7.52247621,20.199697 7.42825321,18.9156037 C7.42390444,18.8559736 7.421875,18.798682 7.421875,18.744898 L7.421875,17.9965986 Z M13.359375,17.9965986 L17.8125,17.9965986 L17.8125,18.6995908 C17.8125,19.8805006 16.9256439,20.8945046 15.7575684,20.9833652 C14.452652,21.0824564 13.359375,20.0400989 13.359375,18.744898 L13.359375,17.9965986 Z M16.5093231,12.0102041 L17.6226044,16.5 L13.2909546,16.5 L12.734314,12.0102041 L16.5093231,12.0102041 Z M7.421875,21.7313722 C8.04548647,22.2051977 8.81840513,22.4863946 9.6484375,22.4863946 C10.8611603,22.4863946 11.9396515,21.8968166 12.6171875,20.9871652 C13.2947235,21.8968166 14.3732147,22.4863946 15.5859375,22.4863946 C16.4206085,22.4863946 17.1917877,22.2069515 17.8125,21.7360491 L17.8125,26.9761905 L7.421875,26.9761905 L7.421875,21.7313722 Z M19.296875,17.9965986 L23.75,17.9965986 L23.75,18.744898 C23.75,19.1392166 23.6470794,19.5271046 23.4525452,19.8667624 C23.2568512,20.2081739 22.974762,20.4925861 22.6367188,20.6895993 C22.2992554,20.8860278 21.9145355,20.9897959 21.5234375,20.9897959 C20.295639,20.9897959 19.296875,19.9828072 19.296875,18.744898 L19.296875,17.9965986 Z M30.875,31.4659864 L27.90625,31.4659864 L27.90625,25.4795918 L30.875,25.4795918 L30.875,31.4659864 Z M32.359375,31.4659864 L32.359375,24.7312925 C32.359375,24.317974 32.0271302,23.9829932 31.6171875,23.9829932 L27.1640625,23.9829932 C26.7541198,23.9829932 26.421875,24.317974 26.421875,24.7312925 L26.421875,31.4659864 L23.75,31.4659864 L23.75,21.736926 C24.0306396,21.5244207 24.2802582,21.2727466 24.4910278,20.9897959 L35.03125,20.9897959 L35.03125,31.4659864 L32.359375,31.4659864 Z M8.1640625,1.53401361 L31.3203125,1.53401361 C31.7302552,1.53401361 32.0625,1.86899444 32.0625,2.28231293 L32.0625,6.02380952 L7.421875,6.02380952 L7.421875,2.28231293 C7.421875,1.86899444 7.75411984,1.53401361 8.1640625,1.53401361 Z M5.1953125,7.52040816 L34.2890625,7.52040816 C34.6990052,7.52040816 35.03125,7.85538899 35.03125,8.26870748 L35.03125,10.5136054 L4.453125,10.5136054 L4.453125,8.26870748 C4.453125,7.85538899 4.78536984,7.52040816 5.1953125,7.52040816 Z M4.18814091,12.0102041 L6.59967041,12.0102041 L6.04302979,16.5 L1.96157841,16.5 L4.18814091,12.0102041 Z M2.96875,22.4103954 C3.21228027,22.4603795 3.46073912,22.4863946 3.7109375,22.4863946 C4.54560854,22.4863946 5.31678774,22.2069515 5.9375,21.7360491 L5.9375,27.7244898 C5.9375,28.1378083 6.26974484,28.4727891 6.6796875,28.4727891 L18.5546875,28.4727891 C18.9646302,28.4727891 19.296875,28.1378083 19.296875,27.7244898 L19.296875,21.7360491 C19.9175873,22.2069515 20.6887665,22.4863946 21.5234375,22.4863946 C21.7736359,22.4863946 22.0220947,22.4603795 22.265625,22.4103954 L22.265625,31.4659864 L2.96875,31.4659864 L2.96875,22.4103954 Z" id="Shape" fill="#333333"></path>
        </g>
    </g>
</svg>