<svg width="42" height="42" xmlns="http://www.w3.org/2000/svg"><g fill="none"><path d="M38.28 24.33c0-6.004-5.036-10.871-11.248-10.871-.078 0-.155 0-.232.002L16.008 26.487v.016c1.042 4.963 5.582 8.7 11.024 8.7 1.06 0 2.084-.142 3.056-.406 1.015 1.23 2.4 2.105 3.974 2.43l-.415-4.415c2.568-1.992 4.633-5.052 4.633-8.481z" fill="#76B7EB"/><path d="M26.8 13.46c1.474 7.038-4.544 13.045-11.445 13.045-1.06 0-2.506-.141-3.478-.406-1.015 1.231-2.4 2.105-3.974 2.43l-.007-4.414c-2.567-1.993-4.21-5.052-4.21-8.482 0-6.004 5.457-10.872 11.669-10.872 6.033 0 10.419 3.809 11.445 8.7z" fill="#C7E6FF"/><path d="M32.666 19.982a.715.715 0 0 0-.703.725c0 .4.315.725.703.725a.714.714 0 0 0 .703-.725c0-.4-.315-.725-.703-.725zM9.327 12.734a.715.715 0 0 0 .703-.725c0-.4-.315-.725-.703-.725a.715.715 0 0 0-.703.725c0 .4.315.725.703.725z" fill="#333"/><path d="M27.368 12.738c-1.327-5.007-5.925-8.702-11.995-8.702C8.943 4.036 3 9.07 3 15.633c0 3.426 1.538 6.627 4.218 8.837l.007 4.06c0 .218.088.423.25.56a.69.69 0 0 0 .584.15c1.545-.32 2.979-1.143 4.08-2.337 1.039.225 2.327.327 3.234.327l.103-.001c1.356 5.101 6.109 8.699 11.573 8.699.953 0 1.898-.11 2.816-.324 1.1 1.192 2.532 2.015 4.076 2.334a.688.688 0 0 0 .61-.173.737.737 0 0 0 .228-.608l-.377-4.016C37.052 30.963 39 27.8 39 24.33c0-6.291-5.19-11.428-11.632-11.593zm-15.294 12.66a.69.69 0 0 0-.715.232 6.416 6.416 0 0 1-2.737 1.95l-.005-3.466a.732.732 0 0 0-.28-.578c-2.498-1.94-3.931-4.82-3.931-7.903 0-5.5 5.022-10.147 10.967-10.147 5.666 0 9.793 3.534 10.758 8.128 1.328 6.344-3.92 11.807-10.144 12.15-.199.01-.405.016-.614.016-1.117 0-2.473-.157-3.299-.381zm21.168 6.835a.735.735 0 0 0-.277.649l.315 3.36a6.42 6.42 0 0 1-2.638-1.914.691.691 0 0 0-.716-.232c-.931.253-1.899.382-2.877.382-4.718 0-8.854-3.043-10.136-7.342a12.772 12.772 0 0 0 5.578-2.08h10.175a.714.714 0 0 0 .703-.725c0-.4-.315-.725-.703-.725h-8.392a11.998 11.998 0 0 0 1.768-2.174h3.812a.714.714 0 0 0 .703-.725c0-.4-.315-.725-.703-.725h-3.037a10.74 10.74 0 0 0 .837-5.781c5.534.303 9.94 4.73 9.94 10.13 0 2.833-1.627 5.788-4.352 7.902z" fill="#333"/><path d="M12.139 12.734h9.28a.714.714 0 0 0 .702-.725c0-.4-.315-.725-.703-.725H12.14a.714.714 0 0 0-.703.725c0 .4.315.725.703.725zm-2.812 3.624h12.091a.714.714 0 0 0 .703-.725c0-.4-.315-.725-.703-.725H9.327a.714.714 0 0 0-.703.725c0 .4.315.725.703.725zm12.794 2.899c0-.4-.315-.725-.703-.725H9.327a.714.714 0 0 0-.703.725c0 .4.315.725.703.725h12.091a.714.714 0 0 0 .703-.725zm10.545 7.973H21.418a.714.714 0 0 0-.703.725c0 .4.315.725.703.725h11.248a.714.714 0 0 0 .703-.725c0-.4-.315-.725-.703-.725z" fill="#333"/></g></svg>