<svg width="42" height="42" xmlns="http://www.w3.org/2000/svg"><g transform="translate(0 1)" fill="none"><path d="M9.39 23.109c3.475.923 7.117-1.383 8.765-7.478.155-.572.286-1.157.395-1.75-3.42-.907-7.596 1.22-13.338 0-.917 5.165 1.016 8.388 4.178 9.228zm14.455-7.478c1.648 6.095 5.29 8.4 8.765 7.478 2.922-.776 4.794-3.587 4.338-8.084-1.008-.267-2.074-.27-3.223-.17-2.75.237-5.979 1.053-10.029.193.047.195.097.39.15.583z" fill="#EF685E"/><path d="M19.14 8.366L8.37 5.506a.818.818 0 0 0-.907.365 24.085 24.085 0 0 0-2.684 6.201c-.96 3.554-.797 6.603.472 8.817a6.288 6.288 0 0 0 3.144 2.756L5.379 34.802l-4.35-1.155a.827.827 0 0 0-.418 1.598l10.272 2.727a.817.817 0 0 0 1.002-.588.827.827 0 0 0-.584-1.01l-4.336-1.151L9.98 24.069c.296.041.592.062.886.062 3.657 0 6.678-3.096 8.08-8.283.576-2.13.854-4.447.805-6.701a.825.825 0 0 0-.611-.78zm-1.777 7.048c-1.196 4.424-3.625 7.065-6.498 7.065A4.94 4.94 0 0 1 9.6 22.31a4.695 4.695 0 0 1-2.927-2.247c-.772-1.347-1.032-3.122-.776-5.214 1.095.18 2.13.249 3.11.249 1.612 0 3.082-.183 4.448-.354 1.542-.192 2.91-.362 4.125-.208-.066.296-.138.589-.216.878zm.516-2.504c-1.454-.2-3.003-.008-4.626.195-2.076.259-4.404.549-7.07.118.055-.236.114-.474.18-.717a22.363 22.363 0 0 1 2.186-5.244l1.303.347c-.236.458-.454.93-.624 1.313a.829.829 0 0 0 .749 1.162.82.82 0 0 0 .75-.49c.265-.6.524-1.131.756-1.552l6.632 1.761a22.644 22.644 0 0 1-.236 3.107zm24.094 21.325a.82.82 0 0 0-1.003-.588l-4.349 1.155-3.016-11.157c1.332-.535 2.41-1.476 3.144-2.757 1.269-2.214 1.432-5.262.471-8.816a24.089 24.089 0 0 0-2.683-6.2.818.818 0 0 0-.907-.366l-10.77 2.86a.825.825 0 0 0-.61.78 24.12 24.12 0 0 0 .804 6.702c1.401 5.186 4.422 8.283 8.08 8.283.294 0 .59-.02.886-.062l3.015 11.154-4.336 1.152a.827.827 0 0 0 .418 1.597l10.272-2.728a.827.827 0 0 0 .584-1.01zM23.885 9.803l9.566-2.54a22.36 22.36 0 0 1 2.186 5.243c.14.519.254 1.023.342 1.512a10.935 10.935 0 0 0-1.526-.036 23.478 23.478 0 0 0-.328-1.724.82.82 0 1 0-1.6.366c.125.551.222 1.06.29 1.494-.372.043-.748.09-1.128.14-2.13.273-4.527.581-7.31.081a22.53 22.53 0 0 1-.492-4.536zm7.25 12.676c-2.726 0-5.05-2.377-6.303-6.396a19.04 19.04 0 0 0 2.614.177c1.618 0 3.085-.188 4.45-.364 1.608-.206 3.025-.388 4.285-.188.096 1.72-.19 3.197-.853 4.354A4.695 4.695 0 0 1 32.4 22.31a4.93 4.93 0 0 1-1.266.17zM21 0c-.453 0-.82.37-.82.826v2.155c0 .456.367.826.82.826.453 0 .82-.37.82-.826V.826A.823.823 0 0 0 21 0zm-4.07 4.887a.819.819 0 0 0 1.122.295.83.83 0 0 0 .292-1.13l-1.087-1.867a.817.817 0 0 0-1.122-.294.83.83 0 0 0-.293 1.13l1.087 1.866zm7.018.295a.82.82 0 0 0 1.123-.295l1.087-1.866a.83.83 0 0 0-.293-1.13.817.817 0 0 0-1.122.294l-1.087 1.866a.83.83 0 0 0 .292 1.13z" fill="#333"/><path d="M31.95 10.47a.821.821 0 0 0 1.028.54.827.827 0 0 0 .535-1.041.82.82 0 0 0-1.02-.545.827.827 0 0 0-.548 1.03l.005.017z" fill="#333"/><ellipse fill="#333" cx="9.023" cy="11.4" rx="1" ry="1"/></g></svg>