<svg width="42" height="42" xmlns="http://www.w3.org/2000/svg"><g transform="translate(0 5)" fill="none"><path d="M21.025 5.611c-6.413 0-11.61 5.173-11.61 11.554s5.197 11.554 11.61 11.554c6.412 0 11.61-5.173 11.61-11.554 0-6.38-5.198-11.554-11.61-11.554zm0 19.076c-4.175 0-7.559-3.368-7.559-7.522s3.384-7.521 7.559-7.521c4.174 0 7.558 3.367 7.558 7.521s-3.384 7.522-7.558 7.522z" fill="#EEE"/><ellipse fill="#999" cx="21.024" cy="17.165" rx="7.558" ry="7.522"/><path d="M38.504 7.393a10.604 10.604 0 0 0-2.848-6.016l-.072-.074c-.656-.689-1.814-.146-1.698.796l2.23 18.073 3.906-.477-1.518-12.302z" fill="#C7E6FF"/><path d="M40.022 19.695l-3.906.477 1.143 9.26a1.966 1.966 0 0 0 2.193 1.706 1.96 1.96 0 0 0 1.713-2.182l-1.143-9.26z" fill="#FAD06A"/><path d="M.86 28.392a2.028 2.028 0 0 0 1.763 2.32 2.033 2.033 0 0 0 2.275-1.826l1.709-18.64-2.874-.351L.86 28.392z" fill="#C7E6FF"/><g fill="#333"><path d="M21.025 4.795c-6.855 0-12.431 5.55-12.431 12.37 0 6.821 5.576 12.37 12.43 12.37 6.855 0 12.431-5.549 12.431-12.37 0-6.82-5.576-12.37-12.43-12.37zm0 23.108c-5.95 0-10.79-4.817-10.79-10.738 0-5.92 4.84-10.737 10.79-10.737 5.95 0 10.79 4.816 10.79 10.737 0 5.92-4.84 10.738-10.79 10.738z"/><path d="M27.27 12.85a.814.814 0 0 0-.327 1.107c.536.978.82 2.087.82 3.208 0 3.697-3.023 6.705-6.738 6.705-3.716 0-6.738-3.008-6.738-6.705s3.022-6.705 6.738-6.705c.356 0 .714.028 1.063.083a.817.817 0 0 0 .257-1.613 8.502 8.502 0 0 0-1.32-.103c-4.62 0-8.38 3.74-8.38 8.338 0 4.598 3.76 8.338 8.38 8.338 4.62 0 8.378-3.74 8.378-8.338a8.317 8.317 0 0 0-1.02-3.99.822.822 0 0 0-1.113-.325z"/><path d="M24.928 11.234a.825.825 0 0 0 .597.488.825.825 0 0 0 .965-.641.81.81 0 0 0-.644-.96.816.816 0 0 0-.615.122.83.83 0 0 0-.228.225.804.804 0 0 0-.138.453.808.808 0 0 0 .063.313zm14.39-3.941a11.345 11.345 0 0 0-1.407-4.245A11.455 11.455 0 0 0 36.25.816l-.072-.075a1.789 1.789 0 0 0-2.083-.39 1.772 1.772 0 0 0-1.024 1.847l3.373 27.334a2.79 2.79 0 0 0 5.408.55c.13-.382.179-.799.126-1.226l-2.66-21.563zM34.7 2a.15.15 0 0 1 .095-.171.187.187 0 0 1 .08-.02c.06 0 .097.039.114.056l.071.075a9.82 9.82 0 0 1 1.423 1.914 9.727 9.727 0 0 1 1.207 3.64l1.418 11.491-2.278.279L34.7 1.999zm5.58 27.613a1.148 1.148 0 0 1-2.207-.279l-1.043-8.45 2.278-.278 1.043 8.45a1.13 1.13 0 0 1-.071.557zM10.085 7.914l.746-6.047a.817.817 0 0 0-.714-.91.82.82 0 0 0-.915.711l-.746 6.047a1.95 1.95 0 0 1-1.828 1.71l-.544-.066.981-7.952a.817.817 0 0 0-.714-.91.82.82 0 0 0-.914.711L4.456 9.16l-.545-.066a1.944 1.944 0 0 1-1.358-2.1L3.3.947a.817.817 0 0 0-.714-.91.82.82 0 0 0-.914.711L.925 6.795a3.564 3.564 0 0 0 1.898 3.611L.033 28.28l-.002.006a2.81 2.81 0 0 0 .554 2.137 2.837 2.837 0 0 0 1.923 1.099l.015.002a2.838 2.838 0 0 0 2.141-.609 2.815 2.815 0 0 0 1.051-1.954l1.65-17.999a3.574 3.574 0 0 0 2.72-3.047zM4.082 28.811c-.03.33-.19.625-.448.832a1.21 1.21 0 0 1-.91.26l-.015-.003a1.207 1.207 0 0 1-1.055-1.374l2.768-17.725.647.08h.002l.646.079-1.635 17.85z"/></g></g></svg>