<svg width="42" height="42" xmlns="http://www.w3.org/2000/svg"><g fill="none"><path fill="#C7E6FF" d="M23.523 15.262l2.572 8.98h11.678v-8.98z"/><path fill="#FAD06A" d="M4.227 24.241h33.546v11.973H4.227z"/><path fill="#C7E6FF" d="M8.688 22.745l-.008.224v8.755h11.875v-8.98z"/><path d="M37.773 12.269v2.993H5.711v-2.993a1.49 1.49 0 0 1 1.484-1.497H36.29c.82 0 1.484.67 1.484 1.497z" fill="#38648C"/><path d="M34.805 6.282v4.49H8.68v-4.49a1.49 1.49 0 0 1 1.484-1.496H33.32c.82 0 1.485.67 1.485 1.496z" fill="#EF685E"/><path fill="#FAD06A" d="M9.422 15.262l-.742 5.986H2.742l2.969-5.986zm5.195 5.986v1.497c0 1.653-1.33 2.993-2.969 2.993-1.564 0-2.847-1.221-2.96-2.77a3.182 3.182 0 0 1-.008-.223v-1.497h5.937zm4.453-5.986l1.485 5.986h-5.938l-.742-5.986zm7.422 5.986v1.497c0 1.645-1.32 2.993-2.969 2.993-1.639 0-2.968-1.34-2.968-2.993v-1.497h5.937z"/><path d="M23.523 15.262l2.97 5.986h-5.938l-1.485-5.986zm-2.968 5.986v1.497c0 1.653-1.33 2.993-2.97 2.993-1.639 0-2.968-1.34-2.968-2.993v-1.497h5.938zm-6.68-5.986l.742 5.986H8.68l.742-5.986zM8.68 21.248v1.497c0 1.653-1.33 2.993-2.97 2.993-1.64 0-2.968-1.34-2.968-2.993v-1.497H8.68z" fill="#EF685E"/><path fill="#38648C" d="M29.164 28.731h4.453v7.483h-4.453z"/><path d="M21.76 7.03a.746.746 0 0 0-.741.749c0 .413.332.748.742.748s.742-.335.742-.748a.746.746 0 0 0-.742-.748zm-2.968 0h-5.64a.745.745 0 0 0-.743.749c0 .413.332.748.742.748h5.641c.41 0 .742-.335.742-.748a.745.745 0 0 0-.742-.748zm11.578 0h-5.64a.745.745 0 0 0-.743.749c0 .413.333.748.742.748h5.641c.41 0 .742-.335.742-.748a.745.745 0 0 0-.742-.748z" fill="#333"/><path d="M2.741 35.466c-.317 0-.607.2-.703.505a.75.75 0 0 0 .704.992H39.26c.317 0 .607-.2.703-.506a.75.75 0 0 0-.704-.991h-.742V12.269c0-1.24-.997-2.245-2.227-2.245h-.742V6.282c0-1.24-.997-2.245-2.227-2.245H10.164a2.236 2.236 0 0 0-2.226 2.245v3.742h-.743a2.236 2.236 0 0 0-2.226 2.245v2.816l-2.89 5.829a.763.763 0 0 0-.079.334v1.497c0 1.18.56 2.29 1.484 2.992v9.729h-.743zM4.598 24.69a2.257 2.257 0 0 1-1.114-1.945v-.748h4.454v.748A2.238 2.238 0 0 1 5.71 24.99c-.391 0-.776-.104-1.113-.3zm8.64-8.68l.557 4.49H9.539l.557-4.49h3.142zm23.793 7.483H27.16a3.78 3.78 0 0 0 .075-.748v-1.497a.76.76 0 0 0-.078-.334l-2.432-4.904h12.307v7.483zM23.083 16.01l2.227 4.49h-4.157l-1.113-4.49h3.043zM9.422 21.997h4.453v.706c0 1.104-.776 2.075-1.856 2.256-1.316.22-2.497-.76-2.59-2.043a2.356 2.356 0 0 1-.007-.171v-.748zm5.937 0h4.454v.703c0 1.18-.887 2.195-2.055 2.283-1.305.1-2.399-.943-2.399-2.238v-.748zm3.15-5.987l1.114 4.49H15.29l-.557-4.49h3.775zm-9.087 9.721a3.674 3.674 0 0 0 2.226.755c1.213 0 2.292-.59 2.97-1.499.677.91 1.755 1.5 2.968 1.5.835 0 1.606-.28 2.227-.751v5.24H9.421v-5.245zm11.875-3.734h4.453v.748a2.245 2.245 0 0 1-1.113 1.945 2.22 2.22 0 0 1-1.114.3 2.238 2.238 0 0 1-2.226-2.245v-.748zm11.578 13.469h-2.969V29.48h2.969v5.986zm1.484 0v-6.735a.745.745 0 0 0-.742-.748h-4.453a.745.745 0 0 0-.742.748v6.735H25.75v-9.73c.28-.212.53-.463.741-.746h10.54v10.476H34.36zM10.164 5.534H33.32c.41 0 .742.335.742.748v3.742H9.422V6.282c0-.413.332-.748.742-.748zM7.195 11.52H36.29c.41 0 .742.335.742.749v2.245H6.453v-2.245c0-.414.332-.749.742-.749zm-1.007 4.49H8.6l-.557 4.49H3.962l2.226-4.49zm-1.22 10.4a3.672 3.672 0 0 0 2.969-.674v5.988c0 .414.333.749.743.749h11.875c.41 0 .742-.335.742-.749v-5.988a3.672 3.672 0 0 0 2.969.674v9.056H4.969V26.41z" fill="#333"/></g></svg>